<?xml version="1.0" encoding="UTF-8" standalone="no" ?>
<!DOCTYPE svg PUBLIC "-//W3C//DTD SVG 1.1//EN" "http://www.w3.org/Graphics/SVG/1.1/DTD/svg11.dtd">
<svg xmlns="http://www.w3.org/2000/svg" xmlns:xlink="http://www.w3.org/1999/xlink" version="1.1" width="1080" height="1080" viewBox="0 0 1080 1080" xml:space="preserve">
<desc>Created with Fabric.js 5.2.4</desc>
<defs>
</defs>
<rect x="0" y="0" width="100%" height="100%" fill="transparent"></rect>
<g transform="matrix(1 0 0 1 540 540)" id="bbc65c37-c709-41bd-94aa-bbe0301fc141"  >
<rect style="stroke: none; stroke-width: 1; stroke-dasharray: none; stroke-linecap: butt; stroke-dashoffset: 0; stroke-linejoin: miter; stroke-miterlimit: 4; fill: rgb(255,255,255); fill-rule: nonzero; opacity: 1; visibility: hidden;" vector-effect="non-scaling-stroke"  x="-540" y="-540" rx="0" ry="0" width="1080" height="1080" />
</g>
<g transform="matrix(Infinity NaN NaN Infinity 0 0)" id="57d36bd6-9378-46a8-a77c-1c5dbd84ee99"  >
</g>
<g transform="matrix(0.54 0 0 0.54 540 540)"  >
<g style="" vector-effect="non-scaling-stroke"   >
		<g transform="matrix(1 0 0 1 0 0)"  >
<path style="stroke: none; stroke-width: 37; stroke-dasharray: none; stroke-linecap: butt; stroke-dashoffset: 0; stroke-linejoin: miter; stroke-miterlimit: 10; fill: rgb(201,42,42); fill-rule: evenodd; opacity: 1;" vector-effect="non-scaling-stroke"  transform=" translate(-729.55, -992.87)" d="M 730.94 1839.6 C 692.1740000000001 1649.3 623.82 1490.9299999999998 541.0400000000001 1344.1599999999999 C 479.6330000000001 1235.29 408.5000000000001 1134.7999999999997 342.68000000000006 1029.2199999999998 C 320.7080000000001 993.9769999999997 301.7460000000001 956.7439999999998 280.63300000000004 920.1699999999998 C 238.41700000000003 847.0329999999999 204.18900000000002 762.2299999999998 206.36400000000003 652.2399999999998 C 208.48900000000003 544.7699999999998 239.57200000000003 458.5599999999998 284.394 388.06999999999977 C 358.113 272.12999999999977 481.594 177.07999999999976 647.274 152.09999999999977 C 782.744 131.67599999999976 909.754 166.18199999999976 999.8140000000001 218.8479999999998 C 1073.41 261.8859999999998 1130.414 319.3779999999998 1173.7340000000002 387.1279999999998 C 1218.9540000000002 457.8439999999998 1250.094 541.3879999999998 1252.7040000000002 650.3579999999998 C 1254.0441 706.1879999999999 1244.9041000000002 757.8879999999998 1232.0240000000001 800.7779999999998 C 1218.9940000000001 844.1869999999998 1198.034 880.4729999999997 1179.384 919.2279999999998 C 1142.974 994.8869999999998 1097.334 1064.2079999999999 1051.5240000000001 1133.5679999999998 C 915.0840000000001 1340.1779999999999 787.0240000000001 1550.8779999999997 730.9440000000002 1839.5979999999997 z" stroke-linecap="round" />
</g>
		<g transform="matrix(1 0 0 1 0 -341.82)"  >
<circle style="stroke: none; stroke-width: 1; stroke-dasharray: none; stroke-linecap: butt; stroke-dashoffset: 0; stroke-linejoin: miter; stroke-miterlimit: 4; fill: rgb(255,255,255); fill-rule: evenodd; opacity: 1;" vector-effect="non-scaling-stroke"  cx="0" cy="0" r="183.33" />
</g>
</g>
</g>
</svg>